<svg xmlns="http://www.w3.org/2000/svg" viewBox="0 0 1100 320" role="img" aria-labelledby="title">
  <title id="title">BizForce</title>
  <rect x="20" y="20" width="280" height="280" rx="62" fill="#1677ff"/>
  <path fill="#fff" d="M104 72h62c48 0 78 23 78 61 0 23-11 40-31 51 27 9 42 30 42 59 0 42-33 67-87 67h-64V72Zm59 91c23 0 35-9 35-27 0-17-12-26-35-26h-14v53h14Zm4 105c27 0 40-10 40-30 0-20-13-30-40-30h-18v60h18Z"/>
  <text x="350" y="220" fill="#1677ff" font-family="Inter,Arial,sans-serif" font-size="164" font-weight="700" letter-spacing="-7">BizForce</text>
</svg>
